# xmcd
#
# Track frame offsets:
# 150
# 14746
# 33346
# 49039
# 61804
# 76510
# 90965
# 104608
# 115181
# 133127
# 149384
# 160900
#
# Disc length: 2397 seconds
#
#
# Revision: 0
# Processed by: cddbd v1.5.1PL0 Copyright (c) Steve Scherf et al.
# Submitted via: FreeRIP 2.70 
#
DISCID=96095b0c
DTITLE=Tião Carreiro e Pardinho - Abrindo Caminho
DYEAR=1971
DGENRE=Sertanejo Raiz
TTITLE0=Abrindo Caminho
TTITLE1=Não Posso Esquecer-te
TTITLE2=Faca Que Não Corta
TTITLE3=Segredo da Chave
TTITLE4=Cavalo que Pula
TTITLE5=Um Pouco de Minha Vida
TTITLE6=Meu Amor tem Outro Dono
TTITLE7=Falou e Disse
TTITLE8=Pescador de Ivaí
TTITLE9=Carro Velho
TTITLE10=Bom Jeus de Iguape
TTITLE11=Filho da Liberdade
EXTD=
EXTT0=
EXTT1=
EXTT2=
EXTT3=
EXTT4=
EXTT5=
EXTT6=
EXTT7=
EXTT8=
EXTT9=
EXTT10=
EXTT11=
PLAYORDER=
